<svg width="139" height="43" viewBox="0 0 139 43" fill="none" xmlns="http://www.w3.org/2000/svg">
<g id="Union">
<path d="M9.24313 19.8654C7.36002 19.8654 5.72446 19.4764 4.33645 18.6984C2.95727 17.9116 1.88753 16.8021 1.12721 15.3698C0.375737 13.9288 0 12.2269 0 10.2642V9.61444C0 7.74018 0.362476 6.08252 1.08743 4.64146C1.82122 3.19155 2.86002 2.0555 4.20383 1.2333C5.55649 0.4111 7.16994 0 9.04421 0C10.3438 0 11.5683 0.185658 12.7176 0.556975C13.8669 0.928291 14.8924 1.49411 15.7942 2.25442V6.9224H12.9165L12.5187 3.99165C12.0766 3.68222 11.5771 3.4391 11.0201 3.26228C10.4632 3.07662 9.83547 2.98379 9.13704 2.98379C7.50148 2.98379 6.21513 3.58055 5.278 4.77407C4.34087 5.95875 3.8723 7.56336 3.8723 9.58792V10.2642C3.8723 12.2976 4.35855 13.9111 5.33104 15.1046C6.30354 16.2981 7.62967 16.8949 9.30943 16.8949C9.86641 16.8949 10.4234 16.833 10.9804 16.7092C11.5462 16.5766 12.0589 16.4087 12.5187 16.2053L12.9165 13.4867H15.7942V18.1017C15.0427 18.5968 14.1056 19.0167 12.9828 19.3615C11.86 19.6975 10.6135 19.8654 9.24313 19.8654Z" fill="black"/>
<path fill-rule="evenodd" clip-rule="evenodd" d="M26.4298 19.8654C24.6881 19.8654 23.1631 19.4455 21.8546 18.6056C20.5462 17.7569 19.5251 16.5943 18.7913 15.1179C18.0663 13.6415 17.7038 11.9617 17.7038 10.0786V9.78684C17.7038 7.91258 18.0663 6.23723 18.7913 4.76081C19.5251 3.28438 20.5418 2.12181 21.8414 1.27308C23.1498 0.424362 24.6749 0 26.4165 0C28.1582 0 29.6876 0.424362 31.0049 1.27308C32.3311 2.12181 33.361 3.28438 34.0948 4.76081C34.8374 6.23723 35.2088 7.91258 35.2088 9.78684V10.0786C35.2088 11.9617 34.8419 13.6415 34.1081 15.1179C33.3743 16.5943 32.3443 17.7569 31.0182 18.6056C29.7009 19.4455 28.1714 19.8654 26.4298 19.8654ZM26.4298 16.8551C28.0653 16.8551 29.2942 16.2363 30.1164 14.9985C30.9386 13.752 31.3497 12.112 31.3497 10.0786V9.76032C31.3497 8.42535 31.1641 7.25393 30.7927 6.24607C30.4214 5.22937 29.8689 4.43812 29.1351 3.8723C28.4101 3.30648 27.5039 3.02358 26.4165 3.02358C24.7898 3.02358 23.5742 3.64244 22.7697 4.88016C21.974 6.11788 21.5761 7.7446 21.5761 9.76032V10.0786C21.5761 12.112 21.9784 13.752 22.7829 14.9985C23.5963 16.2363 24.8119 16.8551 26.4298 16.8551Z" fill="black"/>
<path d="M36.7603 17.2662V19.5869H44.7569V17.2662L42.4759 16.8684V12.7706L42.2505 4.57515L42.3301 4.56189L48.2314 19.3217H51.1621L56.9308 4.44254L57.0103 4.4558L56.944 13.1685V16.8684L54.7824 17.2662V19.5869H62.779V17.2662L60.7102 16.8684V3.01032L62.779 2.61248V0.278487H54.9814L49.889 13.7387H49.8094L44.5447 0.278487H36.7603V2.61248L38.8158 3.01032V16.8684L36.7603 17.2662Z" fill="black"/>
<path fill-rule="evenodd" clip-rule="evenodd" d="M64.1582 19.5869V17.2662L66.2137 16.8684V3.01032L64.1582 2.61248V0.278487H73.3483C74.8247 0.278487 76.0978 0.539293 77.1675 1.0609C78.2373 1.57367 79.0595 2.29421 79.6341 3.2225C80.2088 4.14195 80.4961 5.21611 80.4961 6.44499C80.4961 7.67387 80.2088 8.75246 79.6341 9.68075C79.0595 10.6002 78.2373 11.3163 77.1675 11.8291C76.0978 12.333 74.8247 12.585 73.3483 12.585H70.086V16.8684L72.1547 17.2662V19.5869H64.1582ZM70.086 9.60118H73.3483C74.4268 9.60118 75.2402 9.30943 75.7883 8.72594C76.3453 8.1336 76.6238 7.38212 76.6238 6.47152C76.6238 5.54322 76.3453 4.77849 75.7883 4.17731C75.2402 3.56729 74.4268 3.26228 73.3483 3.26228H70.086V9.60118Z" fill="black"/>
<path fill-rule="evenodd" clip-rule="evenodd" d="M78.4141 17.2662V19.5869H84.9917V17.2662L83.6523 17.0275L84.501 14.3753H91.2908L92.1395 17.0275L90.8001 17.2662V19.5869H97.3777V17.2662L95.9986 17.0673L89.8984 0.278487H85.9332L79.7933 17.0673L78.4141 17.2662ZM90.3758 11.5241H85.416L87.6572 4.94647L87.8561 4.32318H87.9357L88.1213 4.90668L90.3758 11.5241Z" fill="black"/>
<path d="M98.6641 19.5869V17.2662L100.72 16.8684V3.01032L98.6641 2.61248V0.278487H104.645L113.053 13.6724L113.132 13.6591V3.01032L110.666 2.61248V0.278487H118.662V2.61248L116.593 3.01032V19.5869H112.854L104.26 6.32564L104.181 6.3389V16.8684L106.661 17.2662V19.5869H98.6641Z" fill="black"/>
<path d="M125.187 17.2662V19.5869H133.183V17.2662L131.114 16.8684V12.6645L136.764 2.8777L138.673 2.61248V0.278487H131.114V2.61248L133.236 2.83792L129.669 9.03095L129.377 9.61444L129.298 9.62771L129.006 9.00442L125.797 2.83792L127.375 2.61248V0.278487H119.67V2.61248L121.527 2.8777L127.255 12.9696V16.8684L125.187 17.2662Z" fill="black"/>
<path d="M41.9404 42.9999V41.4794L43.2871 41.2187V32.1393L41.9404 31.8787V30.3495H45.8589L51.3674 39.1248L51.4195 39.1161V32.1393L49.8034 31.8787V30.3495H55.0426V31.8787L53.6872 32.1393V42.9999H51.237L45.6069 34.3114L45.5548 34.3201V41.2187L47.1795 41.4794V42.9999H41.9404Z" fill="black"/>
<path fill-rule="evenodd" clip-rule="evenodd" d="M54.9122 42.9999V41.4794L55.8158 41.349L59.8386 30.3495H62.4364L66.4331 41.349L67.3367 41.4794V42.9999H63.0272V41.4794L63.9048 41.323L63.3487 39.5853H58.9002L58.3442 41.323L59.2217 41.4794V42.9999H54.9122ZM59.4997 37.7173H62.7492L61.2722 33.3818L61.1505 32.9995H61.0984L60.9681 33.4078L59.4997 37.7173Z" fill="black"/>
<path d="M68.1795 41.4794V42.9999H73.4186V41.4794L71.9242 41.2187V38.534L71.7765 33.1645L71.8286 33.1558L75.695 42.8261H77.6151L81.3946 33.0777L81.4467 33.0863L81.4033 38.7946V41.2187L79.9871 41.4794V42.9999H85.2262V41.4794L83.8708 41.2187V32.1393L85.2262 31.8787V30.3495H80.1174L76.781 39.1683H76.7289L73.2796 30.3495H68.1795V31.8787L69.5262 32.1393V41.2187L68.1795 41.4794Z" fill="black"/>
<path d="M86.1298 42.9999V41.4794L87.4765 41.2187V32.1393L86.1298 31.8787V30.3495H95.9477V33.764H94.0015L93.8886 32.3044H90.0135V35.4844H94.2969V37.4393H90.0135V41.0536H94.0971L94.21 39.5419H96.1389V42.9999H86.1298Z" fill="black"/>
<path d="M19.914 35.508H0.246959V37.381H19.914V35.508Z" fill="black"/>
<path d="M113.566 37.381H133.233V35.508H113.566V37.381Z" fill="black"/>
</g>
</svg>
